<svg xmlns="http://www.w3.org/2000/svg" xmlns:xlink="http://www.w3.org/1999/xlink" width="219" zoomAndPan="magnify" viewBox="0 0 164.25 56.249996" height="75" preserveAspectRatio="xMidYMid meet" version="1.0">
	<defs>
		<clipPath id="7beebf7ddb">
			<path d="M 0.710938 0 L 162.800781 0 L 162.800781 55.511719 L 0.710938 55.511719 Z M 0.710938 0 " clip-rule="nonzero"/>
		</clipPath>
		<clipPath id="6a9b238ae3">
			<path d="M 0.710938 0 L 162.613281 0 L 162.613281 55.511719 L 0.710938 55.511719 Z M 0.710938 0 " clip-rule="nonzero"/>
		</clipPath>
		<clipPath id="12a175e696">
			<path d="M 0.710938 0 L 162.613281 0 L 162.613281 55.511719 L 0.710938 55.511719 Z M 0.710938 0 " clip-rule="nonzero"/>
		</clipPath>
		<clipPath id="a8dcc9d814">
			<rect x="0" width="163" y="0" height="56"/>
		</clipPath>
		<clipPath id="3679d4a30f">
			<path d="M 5.570312 4.027344 L 50.972656 4.027344 L 50.972656 49.425781 L 5.570312 49.425781 Z M 5.570312 4.027344 " clip-rule="nonzero"/>
		</clipPath>
		<clipPath id="d4970d91db">
			<path d="M 28.269531 4.027344 C 15.734375 4.027344 5.570312 14.191406 5.570312 26.726562 C 5.570312 39.265625 15.734375 49.425781 28.269531 49.425781 C 40.808594 49.425781 50.972656 39.265625 50.972656 26.726562 C 50.972656 14.191406 40.808594 4.027344 28.269531 4.027344 Z M 28.269531 4.027344 " clip-rule="nonzero"/>
		</clipPath>
		<clipPath id="6994f229f4">
			<path d="M 0.570312 0.0273438 L 45.972656 0.0273438 L 45.972656 45.425781 L 0.570312 45.425781 Z M 0.570312 0.0273438 " clip-rule="nonzero"/>
		</clipPath>
		<clipPath id="d8d418a9e4">
			<path d="M 23.269531 0.0273438 C 10.734375 0.0273438 0.570312 10.191406 0.570312 22.726562 C 0.570312 35.265625 10.734375 45.425781 23.269531 45.425781 C 35.808594 45.425781 45.972656 35.265625 45.972656 22.726562 C 45.972656 10.191406 35.808594 0.0273438 23.269531 0.0273438 Z M 23.269531 0.0273438 " clip-rule="nonzero"/>
		</clipPath>
		<clipPath id="fef81dd851">
			<rect x="0" width="46" y="0" height="46"/>
		</clipPath>
		<clipPath id="e47b69d0bc">
			<path d="M 57.503906 4.027344 L 102.902344 4.027344 L 102.902344 49.425781 L 57.503906 49.425781 Z M 57.503906 4.027344 " clip-rule="nonzero"/>
		</clipPath>
		<clipPath id="c3aaaebf47">
			<path d="M 80.203125 4.027344 C 67.664062 4.027344 57.503906 14.191406 57.503906 26.726562 C 57.503906 39.265625 67.664062 49.425781 80.203125 49.425781 C 92.738281 49.425781 102.902344 39.265625 102.902344 26.726562 C 102.902344 14.191406 92.738281 4.027344 80.203125 4.027344 Z M 80.203125 4.027344 " clip-rule="nonzero"/>
		</clipPath>
		<clipPath id="039acb6d96">
			<path d="M 0.503906 0.0273438 L 45.902344 0.0273438 L 45.902344 45.425781 L 0.503906 45.425781 Z M 0.503906 0.0273438 " clip-rule="nonzero"/>
		</clipPath>
		<clipPath id="b5d7c849e7">
			<path d="M 23.203125 0.0273438 C 10.664062 0.0273438 0.503906 10.191406 0.503906 22.726562 C 0.503906 35.265625 10.664062 45.425781 23.203125 45.425781 C 35.738281 45.425781 45.902344 35.265625 45.902344 22.726562 C 45.902344 10.191406 35.738281 0.0273438 23.203125 0.0273438 Z M 23.203125 0.0273438 " clip-rule="nonzero"/>
		</clipPath>
		<clipPath id="a925e75aa7">
			<rect x="0" width="46" y="0" height="46"/>
		</clipPath>
		<clipPath id="ccf895cad8">
			<path d="M 110.175781 4.027344 L 155.574219 4.027344 L 155.574219 49.425781 L 110.175781 49.425781 Z M 110.175781 4.027344 " clip-rule="nonzero"/>
		</clipPath>
		<clipPath id="3d16a90337">
			<path d="M 132.875 4.027344 C 120.335938 4.027344 110.175781 14.191406 110.175781 26.726562 C 110.175781 39.265625 120.335938 49.425781 132.875 49.425781 C 145.414062 49.425781 155.574219 39.265625 155.574219 26.726562 C 155.574219 14.191406 145.414062 4.027344 132.875 4.027344 Z M 132.875 4.027344 " clip-rule="nonzero"/>
		</clipPath>
		<clipPath id="ac754979e0">
			<path d="M 0.175781 0.0273438 L 45.574219 0.0273438 L 45.574219 45.425781 L 0.175781 45.425781 Z M 0.175781 0.0273438 " clip-rule="nonzero"/>
		</clipPath>
		<clipPath id="c9992f3bee">
			<path d="M 22.875 0.0273438 C 10.335938 0.0273438 0.175781 10.191406 0.175781 22.726562 C 0.175781 35.265625 10.335938 45.425781 22.875 45.425781 C 35.414062 45.425781 45.574219 35.265625 45.574219 22.726562 C 45.574219 10.191406 35.414062 0.0273438 22.875 0.0273438 Z M 22.875 0.0273438 " clip-rule="nonzero"/>
		</clipPath>
		<clipPath id="2c8e468720">
			<rect x="0" width="46" y="0" height="46"/>
		</clipPath>
	</defs>
	<g clip-path="url(#6a9b238ae3)">
		<g transform="matrix(1, 0, 0, 1, 0.000000000000000111, 0.000000000000004134)">
			<g clip-path="url(#a8dcc9d814)">
			</g>
		</g>
	</g>
	<g clip-path="url(#3679d4a30f)">
		<g clip-path="url(#d4970d91db)">
			<g transform="matrix(1, 0, 0, 1, 5, 4)">
				<g clip-path="url(#fef81dd851)">
					<g clip-path="url(#6994f229f4)">
						<g clip-path="url(#d8d418a9e4)">
							<path fill="#e78c06" d="M 0.570312 0.0273438 L 45.972656 0.0273438 L 45.972656 45.425781 L 0.570312 45.425781 Z M 0.570312 0.0273438 " fill-opacity="1" fill-rule="nonzero"/>
						</g>
					</g>
				</g>
			</g>
		</g>
	</g>
	<g clip-path="url(#e47b69d0bc)">
		<g clip-path="url(#c3aaaebf47)">
			<g transform="matrix(1, 0, 0, 1, 57, 4)">
				<g clip-path="url(#a925e75aa7)">
					<g clip-path="url(#039acb6d96)">
						<g clip-path="url(#b5d7c849e7)">
							<path fill="#368749" d="M 0.503906 0.0273438 L 45.902344 0.0273438 L 45.902344 45.425781 L 0.503906 45.425781 Z M 0.503906 0.0273438 " fill-opacity="1" fill-rule="nonzero"/>
						</g>
					</g>
				</g>
			</g>
		</g>
	</g>
	<g clip-path="url(#ccf895cad8)">
		<g clip-path="url(#3d16a90337)">
			<g transform="matrix(1, 0, 0, 1, 110, 4)">
				<g clip-path="url(#2c8e468720)">
					<g clip-path="url(#ac754979e0)">
						<g clip-path="url(#c9992f3bee)">
							<path fill="#145b82" d="M 0.175781 0.0273438 L 45.574219 0.0273438 L 45.574219 45.425781 L 0.175781 45.425781 Z M 0.175781 0.0273438 " fill-opacity="1" fill-rule="nonzero"/>
						</g>
					</g>
				</g>
			</g>
		</g>
	</g>
</svg>